<?xml version="1.0" standalone="no"?>
<!DOCTYPE svg PUBLIC "-//W3C//DTD SVG 20010904//EN"
 "http://www.w3.org/TR/2001/REC-SVG-20010904/DTD/svg10.dtd">
<svg version="1.0" xmlns="http://www.w3.org/2000/svg"
 width="736.000000pt" height="552.000000pt" viewBox="0 0 736.000000 552.000000"
 preserveAspectRatio="xMidYMid meet">

<g transform="translate(0.000000,552.000000) scale(0.100000,-0.100000)"
fill="#000000" stroke="none">
<path d="M2546 4564 c-273 -59 -509 -254 -615 -509 -70 -167 -66 -93 -66
-1290 0 -1079 0 -1080 22 -1161 89 -332 340 -571 668 -638 72 -15 193 -16
1155 -14 988 3 1080 5 1135 21 321 93 536 307 626 623 l23 79 3 1035 c3 717 1
1061 -7 1120 -47 364 -323 660 -683 734 -110 23 -2154 23 -2261 0z m1294 -535
c410 -50 757 -294 940 -659 67 -134 107 -282 125 -457 l6 -63 -129 0 c-154 0
-210 14 -281 70 -54 43 -88 94 -121 181 -57 154 -197 306 -356 387 -214 109
-498 97 -710 -29 -129 -76 -259 -237 -315 -389 -21 -59 -24 -81 -23 -225 0
-147 2 -166 27 -240 101 -300 382 -505 692 -505 136 0 269 38 392 111 30 19
110 87 178 151 l121 117 201 -202 c213 -214 240 -251 253 -344 16 -123 -23
-223 -130 -328 l-60 -60 -140 140 -139 139 -98 -51 c-119 -63 -247 -107 -373
-129 -137 -24 -359 -15 -493 20 -610 158 -995 734 -902 1349 72 480 421 865
894 987 141 37 298 47 441 29z"/>
</g>
</svg>
